<mxfile host="app.diagrams.net" modified="2022-07-31T10:37:43.702Z" agent="5.0 (Windows NT 10.0; Win64; x64) AppleWebKit/537.36 (KHTML, like Gecko) Chrome/103.0.0.0 Safari/537.36" etag="mezsgfNBcaotgdUijp60" version="20.2.2" type="github">
  <diagram id="yrpeBRaQr6KSdGHwftCH" name="페이지-1">
    <mxGraphModel dx="1038" dy="547" grid="1" gridSize="10" guides="1" tooltips="1" connect="1" arrows="1" fold="1" page="1" pageScale="1" pageWidth="827" pageHeight="1169" math="0" shadow="0">
      <root>
        <mxCell id="0" />
        <mxCell id="1" parent="0" />
        <mxCell id="vaGLNT0UyujsgYTfbvJj-5" style="edgeStyle=orthogonalEdgeStyle;rounded=0;orthogonalLoop=1;jettySize=auto;html=1;exitX=1;exitY=0.5;exitDx=0;exitDy=0;entryX=-0.03;entryY=0.397;entryDx=0;entryDy=0;entryPerimeter=0;" parent="1" source="vaGLNT0UyujsgYTfbvJj-1" target="vaGLNT0UyujsgYTfbvJj-2" edge="1">
          <mxGeometry relative="1" as="geometry" />
        </mxCell>
        <mxCell id="vaGLNT0UyujsgYTfbvJj-6" style="edgeStyle=orthogonalEdgeStyle;rounded=0;orthogonalLoop=1;jettySize=auto;html=1;exitX=1;exitY=0.5;exitDx=0;exitDy=0;entryX=0;entryY=0.5;entryDx=0;entryDy=0;" parent="1" source="vaGLNT0UyujsgYTfbvJj-1" target="vaGLNT0UyujsgYTfbvJj-3" edge="1">
          <mxGeometry relative="1" as="geometry" />
        </mxCell>
        <mxCell id="vaGLNT0UyujsgYTfbvJj-7" style="edgeStyle=orthogonalEdgeStyle;rounded=0;orthogonalLoop=1;jettySize=auto;html=1;exitX=1;exitY=0.5;exitDx=0;exitDy=0;entryX=0;entryY=0.5;entryDx=0;entryDy=0;" parent="1" source="vaGLNT0UyujsgYTfbvJj-1" target="vaGLNT0UyujsgYTfbvJj-4" edge="1">
          <mxGeometry relative="1" as="geometry" />
        </mxCell>
        <mxCell id="vaGLNT0UyujsgYTfbvJj-1" value="User&lt;br&gt;id = 1" style="rounded=0;whiteSpace=wrap;html=1;" parent="1" vertex="1">
          <mxGeometry x="100" y="320" width="120" height="60" as="geometry" />
        </mxCell>
        <mxCell id="vaGLNT0UyujsgYTfbvJj-2" value="Report&lt;br&gt;id =1" style="rounded=0;whiteSpace=wrap;html=1;" parent="1" vertex="1">
          <mxGeometry x="320" y="270" width="120" height="60" as="geometry" />
        </mxCell>
        <mxCell id="vaGLNT0UyujsgYTfbvJj-3" value="Report&lt;br&gt;id =2" style="rounded=0;whiteSpace=wrap;html=1;" parent="1" vertex="1">
          <mxGeometry x="320" y="340" width="120" height="60" as="geometry" />
        </mxCell>
        <mxCell id="vaGLNT0UyujsgYTfbvJj-4" value="Report&lt;br&gt;id =3" style="rounded=0;whiteSpace=wrap;html=1;" parent="1" vertex="1">
          <mxGeometry x="320" y="410" width="120" height="60" as="geometry" />
        </mxCell>
        <mxCell id="vaGLNT0UyujsgYTfbvJj-8" value="Security" style="rounded=0;whiteSpace=wrap;html=1;" parent="1" vertex="1">
          <mxGeometry x="520" y="270" width="120" height="60" as="geometry" />
        </mxCell>
        <mxCell id="vaGLNT0UyujsgYTfbvJj-9" value="SQL" style="rounded=0;whiteSpace=wrap;html=1;" parent="1" vertex="1">
          <mxGeometry x="670" y="270" width="120" height="60" as="geometry" />
        </mxCell>
        <mxCell id="vaGLNT0UyujsgYTfbvJj-10" value="REST conventions" style="rounded=0;whiteSpace=wrap;html=1;" parent="1" vertex="1">
          <mxGeometry x="520" y="350" width="120" height="60" as="geometry" />
        </mxCell>
        <mxCell id="vaGLNT0UyujsgYTfbvJj-12" value="Users Table" style="rounded=0;whiteSpace=wrap;html=1;" parent="1" vertex="1">
          <mxGeometry x="530" y="520" width="120" height="60" as="geometry" />
        </mxCell>
        <mxCell id="vaGLNT0UyujsgYTfbvJj-13" value="Reports Table" style="rounded=0;whiteSpace=wrap;html=1;" parent="1" vertex="1">
          <mxGeometry x="120" y="520" width="120" height="60" as="geometry" />
        </mxCell>
        <mxCell id="vaGLNT0UyujsgYTfbvJj-16" style="edgeStyle=orthogonalEdgeStyle;rounded=0;orthogonalLoop=1;jettySize=auto;html=1;exitX=1;exitY=0.5;exitDx=0;exitDy=0;entryX=0;entryY=0.5;entryDx=0;entryDy=0;" parent="1" source="vaGLNT0UyujsgYTfbvJj-14" target="vaGLNT0UyujsgYTfbvJj-15" edge="1">
          <mxGeometry relative="1" as="geometry" />
        </mxCell>
        <mxCell id="vaGLNT0UyujsgYTfbvJj-14" value="id, make, user_id" style="rounded=0;whiteSpace=wrap;html=1;" parent="1" vertex="1">
          <mxGeometry x="120" y="580" width="120" height="60" as="geometry" />
        </mxCell>
        <mxCell id="vaGLNT0UyujsgYTfbvJj-15" value="id, email, password" style="rounded=0;whiteSpace=wrap;html=1;" parent="1" vertex="1">
          <mxGeometry x="530" y="580" width="120" height="60" as="geometry" />
        </mxCell>
        <mxCell id="F58hanj43uhJkPzuHPvU-1" value="Association with Nest and TypeORM" style="rounded=0;whiteSpace=wrap;html=1;" vertex="1" parent="1">
          <mxGeometry x="180" y="660" width="370" height="140" as="geometry" />
        </mxCell>
        <mxCell id="F58hanj43uhJkPzuHPvU-2" value="Figure out what kind of association we are modeling" style="rounded=0;whiteSpace=wrap;html=1;" vertex="1" parent="1">
          <mxGeometry x="200" y="810" width="280" height="80" as="geometry" />
        </mxCell>
        <mxCell id="F58hanj43uhJkPzuHPvU-3" value="Add the appropriate decorators to entities" style="rounded=0;whiteSpace=wrap;html=1;" vertex="1" parent="1">
          <mxGeometry x="200" y="890" width="280" height="80" as="geometry" />
        </mxCell>
        <mxCell id="F58hanj43uhJkPzuHPvU-4" value="Associate the records when one is created" style="rounded=0;whiteSpace=wrap;html=1;" vertex="1" parent="1">
          <mxGeometry x="200" y="970" width="280" height="80" as="geometry" />
        </mxCell>
        <mxCell id="F58hanj43uhJkPzuHPvU-5" value="Apply a serializer to limit info shared" style="rounded=0;whiteSpace=wrap;html=1;" vertex="1" parent="1">
          <mxGeometry x="200" y="1050" width="280" height="80" as="geometry" />
        </mxCell>
        <mxCell id="F58hanj43uhJkPzuHPvU-6" value="One-to-One" style="rounded=0;whiteSpace=wrap;html=1;" vertex="1" parent="1">
          <mxGeometry x="560" y="810" width="120" height="60" as="geometry" />
        </mxCell>
        <mxCell id="F58hanj43uhJkPzuHPvU-7" value="One-to-Many" style="rounded=0;whiteSpace=wrap;html=1;" vertex="1" parent="1">
          <mxGeometry x="560" y="880" width="120" height="60" as="geometry" />
        </mxCell>
        <mxCell id="F58hanj43uhJkPzuHPvU-8" value="Many-to-One" style="rounded=0;whiteSpace=wrap;html=1;" vertex="1" parent="1">
          <mxGeometry x="560" y="950" width="120" height="60" as="geometry" />
        </mxCell>
      </root>
    </mxGraphModel>
  </diagram>
</mxfile>
